<?xml version="1.0" encoding="utf-8"?>
<!-- Generator: Adobe Illustrator 14.0.0, SVG Export Plug-In . SVG Version: 6.00 Build 43363)  -->
<!DOCTYPE svg PUBLIC "-//W3C//DTD SVG 1.1//EN" "http://www.w3.org/Graphics/SVG/1.1/DTD/svg11.dtd">
<svg version="1.1" id="Layer_1" xmlns="http://www.w3.org/2000/svg" xmlns:xlink="http://www.w3.org/1999/xlink" x="0px" y="0px"
	 width="612px" height="792px" viewBox="0 0 612 792" enable-background="new 0 0 612 792" xml:space="preserve">
<g>
	<polygon fill-rule="evenodd" clip-rule="evenodd" fill="#FFFFFF" points="209,300 401.756,300 401.756,492.756 209,492.756 
		209,300 	"/>
	<path fill-rule="evenodd" clip-rule="evenodd" fill="#CE1141" d="M370.407,338.833c0.61-0.611,0.854-1.343,0.977-2.198
		c-0.122-0.854-0.366-1.587-0.977-2.198c-0.61-0.61-1.344-0.977-2.076-0.977c-0.977,0-1.709,0.367-2.32,0.977
		c-0.61,0.611-0.977,1.344-0.854,2.198c-0.122,0.855,0.244,1.587,0.854,2.198c0.611,0.61,1.344,0.855,2.32,0.855
		C369.063,339.688,369.797,339.444,370.407,338.833L370.407,338.833z"/>
	<path fill-rule="evenodd" clip-rule="evenodd" fill="#CE1141" d="M384.695,340.91c-0.488-0.489-1.1-0.733-1.71-0.733
		c-0.732,0-1.343,0.244-1.832,0.733c-0.488,0.488-0.732,1.099-0.732,1.832c0,0.61,0.244,1.221,0.732,1.832
		c0.489,0.488,1.1,0.611,1.832,0.611c0.61,0,1.222-0.123,1.71-0.611c0.488-0.611,0.732-1.222,0.732-1.832
		C385.428,342.008,385.184,341.398,384.695,340.91L384.695,340.91z"/>
	<path fill-rule="evenodd" clip-rule="evenodd" fill="#CE1141" d="M315.209,422.363c-1.466-1.465-3.176-2.197-5.252-2.197
		c-1.953,0-3.663,0.732-5.128,2.197c-1.465,1.467-2.198,3.176-2.198,5.129c0,2.076,0.733,3.787,2.198,5.252s3.175,2.197,5.128,2.197
		c2.076,0,3.786-0.732,5.252-2.197c1.465-1.465,2.076-3.176,2.198-5.252C317.285,425.539,316.674,423.83,315.209,422.363
		L315.209,422.363z"/>
	<path fill-rule="evenodd" clip-rule="evenodd" fill="#CE1141" d="M293.837,438.85c-1.709,0-3.053,0.611-4.152,1.832
		c-1.221,1.1-1.832,2.32-1.709,3.908c-0.123,1.588,0.488,3.053,1.709,4.152c1.099,1.1,2.442,1.709,4.152,1.709
		c1.587,0,2.931-0.609,4.152-1.709c1.099-1.1,1.587-2.564,1.587-4.152s-0.488-2.809-1.587-3.908
		C296.769,439.461,295.425,438.85,293.837,438.85L293.837,438.85z"/>
	<path fill-rule="evenodd" clip-rule="evenodd" fill="#CE1141" d="M235.342,442.514c-0.488,0.488-0.855,1.1-0.855,1.832
		c0,0.609,0.367,1.221,0.855,1.709s0.977,0.732,1.71,0.732c0.61,0,1.343-0.244,1.832-0.732s0.733-1.1,0.733-1.709
		c0-0.732-0.244-1.344-0.733-1.832s-1.221-0.732-1.832-0.732C236.319,441.781,235.83,442.025,235.342,442.514L235.342,442.514z"/>
	<path fill-rule="evenodd" clip-rule="evenodd" fill="#CE1141" d="M254.148,448.01c-0.611-0.732-1.466-0.979-2.442-0.979
		c-0.855,0-1.709,0.246-2.32,0.979c-0.611,0.609-0.977,1.465-0.977,2.32c0,0.977,0.366,1.709,0.977,2.441
		c0.611,0.611,1.465,0.855,2.32,0.855c0.977,0,1.832-0.244,2.442-0.855c0.61-0.732,0.977-1.465,0.855-2.441
		C255.125,449.475,254.759,448.619,254.148,448.01L254.148,448.01z"/>
	<path fill-rule="evenodd" clip-rule="evenodd" fill="#CE1141" d="M269.414,455.092c0.732,0.732,1.709,1.1,2.809,1.221
		c0.977-0.121,1.955-0.488,2.687-1.221c0.854-0.732,1.099-1.709,1.099-2.686c0-1.1-0.244-2.076-1.099-2.811
		c-0.732-0.732-1.71-1.098-2.687-1.098c-1.099,0-2.076,0.365-2.809,1.098c-0.732,0.734-1.099,1.711-1.099,2.811
		C268.314,453.383,268.681,454.359,269.414,455.092L269.414,455.092z"/>
	<path fill-rule="evenodd" clip-rule="evenodd" fill="#CE1141" d="M350.502,331.873c-0.733-0.732-1.588-1.099-2.688-1.099
		c-1.099,0-2.075,0.367-2.809,1.099c-0.732,0.732-1.099,1.709-1.099,2.687c0,1.099,0.366,2.076,1.099,2.809
		c0.733,0.733,1.71,1.099,2.809,1.099c1.1,0,1.954-0.366,2.688-1.099c0.732-0.732,1.221-1.709,1.221-2.809
		C351.723,333.582,351.234,332.605,350.502,331.873L350.502,331.873z"/>
	<path fill-rule="evenodd" clip-rule="evenodd" fill="#CE1141" d="M330.352,338.223c-1.222-1.221-2.564-1.709-4.152-1.709
		c-1.587,0-2.931,0.488-4.151,1.709c-1.1,1.099-1.71,2.564-1.71,4.152c0,1.588,0.61,2.931,1.71,4.03
		c1.221,1.099,2.564,1.709,4.151,1.709c1.588,0,2.931-0.61,4.152-1.709c1.099-1.099,1.71-2.442,1.71-4.03
		C332.062,340.787,331.45,339.322,330.352,338.223L330.352,338.223z"/>
	<path fill-rule="evenodd" clip-rule="evenodd" fill="#CE1141" d="M315.209,354.221c-1.466-1.466-3.176-2.198-5.252-2.198
		c-1.953,0-3.663,0.732-5.25,2.198c-1.343,1.465-2.076,3.175-2.076,5.251c0,1.954,0.733,3.664,2.076,5.129
		c1.587,1.465,3.297,2.198,5.25,2.198c2.076,0,3.786-0.733,5.13-2.198c1.587-1.466,2.32-3.175,2.32-5.129
		C317.407,357.396,316.674,355.686,315.209,354.221L315.209,354.221z"/>
	<path fill-rule="evenodd" clip-rule="evenodd" fill="#004C92" d="M333.526,361.182c-2.931,1.221-5.739,2.686-8.548,3.908v36.758
		c-0.122,7.205,5.373,10.869,16.608,10.869v-5.74c-2.442,0-4.274-0.488-5.74-1.588c-1.587-1.221-2.32-2.686-2.32-4.641V361.182
		L333.526,361.182z"/>
	<path fill-rule="evenodd" clip-rule="evenodd" fill="#004C92" d="M365.4,375.347c-5.983,0-11.113,1.588-15.387,4.763
		c-4.886,3.664-7.45,8.426-7.328,14.288c0,5.741,2.442,10.258,7.083,13.678c4.274,3.053,9.403,4.641,15.51,4.641
		c4.152,0,7.938-0.488,11.479-1.344c2.687-0.732,4.762-1.588,9.525-4.152l-3.542-4.641c-6.839,3.664-10.868,4.641-15.876,4.641
		c-4.273,0-7.815-0.977-10.38-2.93c-3.175-2.199-4.763-5.375-4.763-9.648h34.805c0.366-1.222,0.61-2.564,0.61-3.908
		c0-4.641-1.832-8.304-5.618-11.113C377.612,376.813,372.239,375.347,365.4,375.347L365.4,375.347z M356.119,383.407
		c2.564-1.832,5.739-2.687,9.647-2.687c4.03,0,7.327,0.977,9.647,2.809c2.198,1.71,3.298,3.908,3.298,6.473h-26.745
		C352.333,387.438,353.677,385.239,356.119,383.407L356.119,383.407z"/>
	<path fill-rule="evenodd" clip-rule="evenodd" fill="#004C92" d="M218.123,378.889l3.663,5.373
		c2.809-2.198,6.961-3.297,12.334-3.297c6.961,0,10.38,2.931,10.38,8.793c-2.32-0.611-4.274-0.855-6.106-0.855
		c-6.594,0-12.089,1.221-16.242,3.786c-4.274,2.442-6.472,5.618-6.472,9.28c0,3.055,1.343,5.619,4.152,7.695
		c2.687,2.076,5.984,3.053,9.77,3.053c7.083,0,12.334-1.711,15.754-4.885c0.854,1.709,1.954,2.93,3.786,3.662
		c1.709,0.855,4.274,1.223,7.815,1.223v-3.297c-2.564-1.1-3.786-3.176-3.786-6.229v-12.945c0-5.251-1.587-9.037-4.763-11.479
		c-3.175-2.32-8.304-3.419-15.265-3.419c-2.687,0-5.374,0.367-8.182,1.1C222.031,377.057,219.833,377.912,218.123,378.889
		L218.123,378.889z M238.883,393.666c0.977,0,2.931,0.244,5.617,0.61v8.792c-3.296,3.053-7.083,4.52-11.356,4.52
		c-5.984,0-8.915-1.832-8.915-5.496c0-2.32,1.343-4.273,4.03-5.984C230.946,394.521,234.609,393.666,238.883,393.666
		L238.883,393.666z"/>
	<path fill-rule="evenodd" clip-rule="evenodd" fill="#004C92" d="M264.04,379.011c-3.419,2.564-5.251,5.739-5.129,9.403
		c0,5.983,3.419,10.136,10.136,12.457c-2.442,0.488-4.396,1.098-5.984,2.076c-1.588,0.977-2.442,2.076-2.442,3.297
		c0,3.908,3.419,5.861,10.258,5.861c1.465-0.121,3.419-0.244,5.984-0.611c2.443-0.365,4.152-0.488,5.129-0.488
		c5.74,0,8.549,1.344,8.549,4.275c-0.122,1.465-1.221,2.686-3.419,3.785c-2.198,0.977-5.251,1.465-9.037,1.465
		c-4.274,0-8.915-1.342-13.922-3.785l-4.641,5.129c2.076,1.221,4.885,2.199,8.426,3.053c3.419,0.855,6.717,1.223,9.77,1.223
		c6.106,0,11.235-0.979,15.143-3.055c4.03-2.074,5.984-4.762,5.984-8.059c0-2.932-1.343-5.373-3.908-7.084
		c-2.687-1.588-6.472-2.441-11.113-2.441c-1.343,0-3.419,0.121-6.228,0.488c-2.687,0.365-4.641,0.488-5.984,0.488
		c-2.931,0-4.396-0.488-4.396-1.344c0-0.732,0.732-1.221,2.198-1.588c1.343-0.488,2.442-0.732,3.297-0.732l7.083-0.609
		c4.885-0.367,8.915-1.711,11.968-4.275c3.053-2.442,4.518-5.495,4.518-9.159c0-3.419-1.099-6.228-3.175-8.304l5.007-2.931
		l-5.496-3.908l-4.274,3.786c-2.809-1.343-6.472-2.076-11.235-2.076C271.978,375.347,267.582,376.568,264.04,379.011L264.04,379.011
		z M270.391,382.796c1.954-1.587,4.396-2.442,7.327-2.32c2.809-0.122,5.007,0.733,6.961,2.32c1.832,1.588,2.809,3.542,2.809,5.74
		c0,2.564-0.855,4.64-2.687,6.35c-1.709,1.587-4.03,2.32-7.083,2.32c-3.053,0-5.496-0.733-7.327-2.443
		c-1.832-1.587-2.809-3.785-2.687-6.228C267.582,386.338,268.559,384.384,270.391,382.796L270.391,382.796z"/>
	<polygon fill-rule="evenodd" clip-rule="evenodd" fill="#004C92" points="316.063,375.958 300.921,375.958 300.921,381.332 
		307.515,381.332 307.515,412.105 316.063,412.105 316.063,375.958 	"/>
	<polygon fill-rule="evenodd" clip-rule="evenodd" fill="#004C92" points="390.435,390.979 390.435,394.521 390.801,394.521 
		390.801,390.979 391.656,390.979 391.656,390.735 389.58,390.735 389.58,390.979 390.435,390.979 	"/>
	<polygon fill-rule="evenodd" clip-rule="evenodd" fill="#004C92" points="392.511,394.521 392.145,394.521 392.145,390.735 
		392.756,390.735 393.61,394.032 393.61,394.032 394.587,390.735 395.075,390.735 395.075,394.521 394.709,394.521 394.709,390.979 
		394.709,390.979 393.854,394.521 393.488,394.521 392.511,390.979 392.511,390.979 392.511,394.521 	"/>
</g>
</svg>
